<?xml version="1.0" standalone="no"?>
<!DOCTYPE svg PUBLIC "-//W3C//DTD SVG 20010904//EN"
 "http://www.w3.org/TR/2001/REC-SVG-20010904/DTD/svg10.dtd">
<svg version="1.0" xmlns="http://www.w3.org/2000/svg"
 width="80.000000pt" height="43.000000pt" viewBox="0 0 80.000000 43.000000"
 preserveAspectRatio="xMidYMid meet">

<g transform="translate(0.000000,43.000000) scale(0.100000,-0.100000)"
fill="#000000" stroke="none">
<path d="M330 417 c-19 -6 -53 -29 -75 -52 -86 -85 -86 -215 0 -300 85 -86
215 -86 300 0 86 85 86 215 0 300 -59 60 -141 79 -225 52z m150 -122 c-19 -21
-33 -25 -76 -25 -50 0 -53 -2 -57 -27 -4 -26 -4 -26 -6 5 l-1 32 54 0 c30 0
58 5 61 10 4 6 -12 10 -40 10 -28 0 -44 4 -40 10 3 6 34 10 67 10 l61 0 -23
-25z m-90 -55 c0 -5 15 -10 33 -10 l32 -1 -28 -24 c-15 -14 -39 -25 -53 -25
-20 0 -24 -5 -24 -31 0 -17 4 -28 10 -24 6 3 10 15 10 26 0 10 5 19 10 19 19
0 10 -37 -15 -60 l-25 -23 0 56 c0 55 1 57 28 57 15 0 34 5 42 10 12 8 9 10
-12 10 -18 0 -28 5 -28 15 0 8 5 15 10 15 6 0 10 -4 10 -10z"/>
</g>
</svg>
